<svg viewBox="0 0 1070 145" xmlns="http://www.w3.org/2000/svg" xml:space="preserve" style="fill-rule:evenodd;clip-rule:evenodd;stroke-linejoin:round;stroke-miterlimit:2">
  <path d="M112.888 275.656v-109.91c-1.668 2.324-3.962 4.201-6.88 5.633-2.919 1.432-5.676 2.148-8.271 2.148v-22.776c2.456-.432 5.097-1.364 7.923-2.796 2.826-1.432 5.456-3.405 7.888-5.917 2.432-2.513 4.297-5.553 5.594-9.119h19.668v142.737h-25.922ZM178.215 276.953c-10.332 0-18.313-3.377-23.942-10.132-5.629-6.754-8.444-16.481-8.444-29.179v-64.358c0-13.401 2.676-23.681 8.027-30.841 5.351-7.16 13.471-10.74 24.359-10.74 10.934 0 19.065 3.58 24.393 10.74 5.328 7.16 7.992 17.44 7.992 30.841v64.358c0 12.698-2.803 22.425-8.409 29.179-5.606 6.755-13.598 10.132-23.976 10.132Zm0-26.262c1.899 0 3.382-.999 4.448-2.999 1.065-1.999 1.598-4.241 1.598-6.727v-70.437c0-3.35-.313-6.281-.938-8.794-.626-2.513-2.328-3.769-5.108-3.769s-4.483 1.256-5.108 3.769c-.626 2.513-.938 5.444-.938 8.794v70.437c0 2.486.544 4.728 1.633 6.727 1.089 2 2.56 2.999 4.413 2.999ZM247.295 276.953c-8.85 0-15.973-3.215-21.371-9.645-5.397-6.431-8.096-15.428-8.096-26.992V174.5c0-13.833 2.351-24.424 7.054-31.773s12.359-11.024 22.969-11.024c5.791 0 10.945 1.243 15.463 3.729 4.517 2.485 8.073 6.2 10.668 11.145 2.594 4.944 3.891 11.172 3.891 18.683v24.64h-24.324v-21.074c0-4.269-.463-7.146-1.389-8.632-.927-1.486-2.363-2.229-4.309-2.229-2.271 0-3.799.959-4.587 2.877-.788 1.919-1.182 4.472-1.182 7.66v71.409c0 3.945.499 6.728 1.495 8.349.996 1.621 2.42 2.431 4.274 2.431 2.085 0 3.556-.999 4.413-2.999.857-1.999 1.285-4.593 1.285-7.781v-25.694h24.602v26.991c0 12.536-2.71 21.628-8.131 27.275-5.421 5.647-12.996 8.47-22.725 8.47ZM315.471 276.953c-9.776 0-17.247-3.445-22.413-10.334-5.166-6.89-7.748-16.846-7.748-29.869v-67.762c0-12.212 2.559-21.479 7.679-27.801 5.12-6.323 12.614-9.484 22.482-9.484 9.869 0 17.363 3.161 22.482 9.484 5.12 6.322 7.68 15.589 7.68 27.801v67.762c0 13.023-2.583 22.979-7.749 29.869-5.166 6.889-12.637 10.334-22.413 10.334Zm.209-26.262c3.706 0 5.559-4.187 5.559-12.563v-69.626c0-7.025-1.807-10.537-5.42-10.537-4.077 0-6.116 3.593-6.116 10.78v69.545c0 4.431.463 7.606 1.39 9.524.926 1.918 2.455 2.877 4.587 2.877ZM383.787 276.953c-10.193 0-17.699-3.337-22.517-10.01-4.819-6.674-7.228-16.495-7.228-29.464V133h23.768v103.345c0 2.377.116 4.66.347 6.849.232 2.188.765 3.985 1.599 5.39.834 1.405 2.177 2.107 4.031 2.107 1.899 0 3.266-.689 4.1-2.066.834-1.378 1.355-3.175 1.564-5.391.208-2.215.312-4.512.312-6.889V133h23.768v104.479c0 12.969-2.409 22.79-7.227 29.464-4.819 6.673-12.325 10.01-22.517 10.01ZM422.913 275.656V133h25.158l11.259 68.329V133h23.629v142.656h-23.907l-12.232-71.328v71.328h-23.907ZM504.294 275.656v-115.26h-14.525V133h53.513v27.396h-14.525v115.26h-24.463ZM612.64 276.953c-9.776 0-17.247-3.445-22.413-10.334-5.166-6.89-7.749-16.846-7.749-29.869v-67.762c0-12.212 2.56-21.479 7.68-27.801 5.119-6.323 12.613-9.484 22.482-9.484 9.868 0 17.363 3.161 22.482 9.484 5.12 6.322 7.68 15.589 7.68 27.801v67.762c0 13.023-2.583 22.979-7.749 29.869-5.166 6.889-12.637 10.334-22.413 10.334Zm.208-26.262c3.707 0 5.56-4.187 5.56-12.563v-69.626c0-7.025-1.807-10.537-5.421-10.537-4.077 0-6.115 3.593-6.115 10.78v69.545c0 4.431.463 7.606 1.39 9.524.926 1.918 2.455 2.877 4.586 2.877ZM652.67 275.656V133h48.926v27.802h-24.324v22.695h23.073v27.478h-23.073v64.681H652.67ZM709.449 275.656V133h48.926v27.802h-24.324v22.695h23.073v27.478h-23.073v64.681h-24.602ZM765.116 133h23.629v142.656h-23.629zM826.968 276.953c-8.849 0-15.972-3.215-21.37-9.645-5.398-6.431-8.096-15.428-8.096-26.992V174.5c0-13.833 2.351-24.424 7.054-31.773 4.702-7.349 12.358-11.024 22.968-11.024 5.792 0 10.946 1.243 15.463 3.729 4.518 2.485 8.074 6.2 10.668 11.145 2.595 4.944 3.892 11.172 3.892 18.683v24.64h-24.324v-21.074c0-4.269-.463-7.146-1.39-8.632-.927-1.486-2.363-2.229-4.309-2.229-2.27 0-3.799.959-4.587 2.877-.787 1.919-1.181 4.472-1.181 7.66v71.409c0 3.945.498 6.728 1.494 8.349.996 1.621 2.421 2.431 4.274 2.431 2.085 0 3.556-.999 4.413-2.999.857-1.999 1.286-4.593 1.286-7.781v-25.694h24.602v26.991c0 12.536-2.71 21.628-8.131 27.275-5.421 5.647-12.996 8.47-22.726 8.47ZM864.844 133h23.629v142.656h-23.629zM894.867 275.656 906.681 133h41.49l11.606 142.656h-23.143l-1.737-23.019h-14.733l-1.529 23.019h-23.768Zm27.034-45.796h11.12l-5.352-72.544h-1.112l-4.656 72.544ZM967.283 275.656V133h24.462v118.34h25.155v24.316h-49.617Z" style="fill-rule:nonzero" transform="matrix(1.1641 0 0 .99828 -113.776 -131.476)"/>
</svg>
