<svg viewBox="0 0 1080 1080" xmlns="http://www.w3.org/2000/svg" xml:space="preserve" style="fill-rule:evenodd;clip-rule:evenodd;stroke-linejoin:round;stroke-miterlimit:2">
  <style>path {fill: #000;} @media (prefers-color-scheme: dark) {path {fill: #fff;}}</style>
  <path d="M277.937 842.449V306.637c-6.809 11.328-16.17 20.482-28.085 27.463-11.915 6.98-23.169 10.471-33.76 10.471V233.536c10.024-2.107 20.804-6.652 32.341-13.632 11.537-6.981 22.27-16.596 32.199-28.846 9.929-12.249 17.542-27.067 22.837-44.453h80.285v695.844H277.937ZM544.607 848.771c-42.176 0-74.753-16.464-97.732-49.392-22.979-32.929-34.468-80.346-34.468-142.251V343.385c0-65.33 10.922-115.447 32.766-150.351 21.844-34.904 54.989-52.356 99.434-52.356 44.634 0 77.826 17.452 99.576 52.356 21.749 34.904 32.624 85.021 32.624 150.351v313.743c0 61.905-11.442 109.322-34.327 142.251-22.884 32.928-55.508 49.392-97.873 49.392Zm0-128.025c7.754 0 13.806-4.874 18.156-14.621 4.35-9.746 6.525-20.679 6.525-32.796V329.951c0-16.333-1.277-30.624-3.83-42.873-2.553-12.25-9.503-18.374-20.851-18.374-11.348 0-18.298 6.124-20.851 18.374-2.554 12.249-3.83 26.54-3.83 42.873v343.378c0 12.117 2.222 23.05 6.667 32.796 4.444 9.747 10.449 14.621 18.014 14.621ZM826.596 848.771c-36.123 0-65.202-15.673-87.235-47.021s-33.05-75.209-33.05-131.583V349.312c0-67.437 9.598-119.069 28.795-154.895 19.196-35.826 50.45-53.739 93.76-53.739 23.641 0 44.681 6.059 63.121 18.176 18.44 12.118 32.956 30.229 43.547 54.332 10.591 24.104 15.886 54.464 15.886 91.08v120.123h-99.292V321.653c0-20.811-1.891-34.839-5.673-42.083-3.783-7.244-9.646-10.866-17.589-10.866-9.268 0-15.509 4.675-18.724 14.027s-4.823 21.799-4.823 37.341v348.12c0 19.23 2.033 32.797 6.1 40.699 4.066 7.903 9.882 11.855 17.447 11.855 8.51 0 14.515-4.874 18.014-14.621 3.499-9.746 5.248-22.391 5.248-37.933v-125.26h100.427v131.582c0 61.115-11.064 105.437-33.192 132.965-22.128 27.528-53.05 41.292-92.767 41.292Z" style="fill-rule:nonzero" transform="matrix(1.40944 0 0 1.3563 -283.569 -131.427)"/>
</svg>
